<svg xmlns="http://www.w3.org/2000/svg" width="682.667" height="682.667" version="1" viewBox="0 0 512 512"><path d="M234.5.6c-1.6.2-7 .9-12 1.5-20.2 2.4-45.5 9.2-65 17.4C126.3 32.6 99.1 50.8 75 75 26.5 123.5 0 187.4 0 256s26.5 132.5 75 181c40.2 40.3 88.6 64.3 147.5 73.1 5.7.9 18 1.4 33.5 1.4 30.7 0 46.9-2.2 73.5-10.1 40.4-12 77.1-33.9 107.5-64.4 48.5-48.5 75-112.4 75-181s-26.5-132.5-75-181c-39.3-39.4-87-63.4-143.7-72.6C284 .9 241.7-.4 234.5.6zm44.2 106c62.3 9.2 111.9 56.2 125.5 118.7 1.9 8.7 2.2 13.3 2.2 30.7s-.3 22-2.2 30.7C388.8 357.7 328 407 256 407c-72 0-132.8-49.3-148.2-120.3-1.9-8.7-2.2-13.3-2.2-30.7s.3-22 2.2-30.7c13.5-62.1 62.9-109.2 124.7-118.7 12.3-1.9 33.5-1.9 46.2 0z"/><path d="M252 132v12h8v-24h-8v12zM159.2 159.3c-1.2 1.3-2.2 2.8-2.2 3.3s3.7 4.7 8.3 9.2l8.3 8.2 2.9-3 2.9-3-8.4-8.5c-4.7-4.7-8.7-8.5-9.1-8.5-.3 0-1.5 1-2.7 2.3zM340 165.5l-8.4 8.5 2.9 3 2.9 3 8.8-8.7 8.8-8.7-2.7-2.8c-1.5-1.5-2.9-2.8-3.3-2.8-.3 0-4.3 3.8-9 8.5zM250 162c-1.9 1.9-2 3.3-2 40.8v38.9l-2.6 2.4c-1.4 1.3-3.2 3.6-4 5.1-1.6 3.1-1.8 10.6-.4 12.8.7 1.2-5.3 7.7-28.3 30.7L183.5 322l3.3 3.2 3.2 3.3 29.3-29.2c23-23 29.5-29 30.7-28.3 2.2 1.4 9.7 1.2 12.8-.4 1.5-.8 3.8-2.6 5.1-4l2.4-2.6h30.9c29.5 0 30.9-.1 32.8-2 1.3-1.3 2-3.3 2-6s-.7-4.7-2-6c-1.9-1.9-3.3-2-32.7-2h-30.7l6.4-6.5c5.7-5.8 6.6-6.3 7.9-5 1.4 1.4 2.8.2 13.3-10.2l11.8-11.8-6.2-6.2-6.3-6.3-11.7 11.7c-10.5 10.5-11.6 11.9-10.3 13.3 1.3 1.4.7 2.3-5 8l-6.5 6.4v-38.7c0-37.4-.1-38.8-2-40.7-1.3-1.3-3.3-2-6-2s-4.7.7-6 2zM120 256v4h24v-8h-24v4zM368 256v4h24v-8h-24v4zM165.7 340.8l-8.7 8.8 3 2.9 3.1 2.9 8.7-8.7 8.7-8.7-3-3-3-3-8.8 8.8zM335.5 335l-2.9 3.1 8.7 8.6 8.6 8.7 2.6-2.4c1.4-1.3 2.5-2.8 2.5-3.4 0-.7-3.7-4.9-8.3-9.4l-8.3-8.2-2.9 3zM252 380v12h8v-24h-8v12z"/></svg>